#N canvas 621 269 983 525 10;
#X declare -lib mrpeach;
#X obj 45 44 import mrpeach;
#X obj 291 37 udpreceive 10000;
#X obj 290 66 unpackOSC;
#X floatatom -124 273 5 0 0 0 - - -;
#X obj -125 229 unpack f;
#X obj -127 192 routeOSC /fader1;
#X obj 69 154 routeOSC /1;
#X obj -17 193 routeOSC /fader2;
#X obj 92 194 routeOSC /fader3;
#X obj 199 195 routeOSC /fader4;
#X floatatom -15 272 5 0 0 0 - - -;
#X obj -16 228 unpack f;
#X floatatom 96 277 5 0 0 0 - - -;
#X obj 95 233 unpack f;
#X floatatom 200 276 5 0 0 0 - - -;
#X obj 199 232 unpack f;
#X floatatom 324 275 5 0 0 0 - - -;
#X obj 316 157 routeOSC /3;
#X obj 323 231 unpack f f;
#X floatatom 378 274 5 0 0 0 - - -;
#X obj 323 194 routeOSC /xy;
#X obj 329 323 * 127;
#X floatatom 328 360 5 0 0 0 - - -;
#X obj 378 324 * 127;
#X floatatom 381 361 5 0 0 0 - - -;
#X obj -158 34 ctlin;
#X floatatom -197 69 5 0 0 0 - - -;
#X floatatom -155 71 5 0 0 0 - - -;
#X floatatom -104 70 5 0 0 0 - - -;
#X obj 333 424 ctlout 80 1;
#X obj 413 420 ctlout 81 1;
#X floatatom 454 73 5 0 0 0 - - -;
#X floatatom 496 75 5 0 0 0 - - -;
#X floatatom 547 74 5 0 0 0 - - -;
#X obj 493 38 notein;
#X obj 403 158 routeOSC /accxyz;
#X obj 420 234 unpack f f f;
#X floatatom 433 273 5 0 0 0 - - -;
#X floatatom 487 272 5 0 0 0 - - -;
#X floatatom 437 358 5 0 0 0 - - -;
#X floatatom 490 359 5 0 0 0 - - -;
#X obj 437 296 + 10;
#X obj 488 297 + 10;
#X obj 487 322 * 6.3;
#X obj 439 321 * 6.3;
#X msg -127 407 connect 192.168.0.3 9000;
#X obj -76 459 udpsend;
#X msg -77 431 disconnect;
#X floatatom 35 309 5 0 0 0 - - -;
#X floatatom 100 306 5 0 0 0 - - -;
#X obj 46 435 packOSC;
#X msg 46 405 send /3/xy \$1 \$2;
#X obj 89 348 t b f;
#X obj 51 373 pack f f;
#X obj 37 335 / 127.1;
#X obj 95 327 / 127.2;
#X floatatom -231 275 5 0 0 0 - - -;
#X obj -232 231 unpack f;
#X obj -234 194 routeOSC /fader5;
#X obj -233 318 ctlout 88 1;
#X obj -232 295 * 127;
#X text -136 123 ToushOSC > PD > Q;
#X connect 1 0 2 0;
#X connect 2 0 6 0;
#X connect 2 0 17 0;
#X connect 2 0 35 0;
#X connect 4 0 3 0;
#X connect 5 0 4 0;
#X connect 6 0 5 0;
#X connect 6 0 7 0;
#X connect 6 0 8 0;
#X connect 6 0 9 0;
#X connect 6 0 58 0;
#X connect 7 0 11 0;
#X connect 8 0 13 0;
#X connect 9 0 15 0;
#X connect 11 0 10 0;
#X connect 13 0 12 0;
#X connect 15 0 14 0;
#X connect 16 0 21 0;
#X connect 17 0 20 0;
#X connect 18 0 16 0;
#X connect 18 1 19 0;
#X connect 19 0 23 0;
#X connect 20 0 18 0;
#X connect 21 0 22 0;
#X connect 22 0 30 0;
#X connect 23 0 24 0;
#X connect 24 0 29 0;
#X connect 25 0 26 0;
#X connect 25 1 27 0;
#X connect 25 2 28 0;
#X connect 34 0 31 0;
#X connect 34 1 32 0;
#X connect 34 2 33 0;
#X connect 35 0 36 0;
#X connect 36 0 37 0;
#X connect 36 1 38 0;
#X connect 37 0 41 0;
#X connect 38 0 42 0;
#X connect 39 0 29 0;
#X connect 40 0 30 0;
#X connect 41 0 44 0;
#X connect 42 0 43 0;
#X connect 43 0 40 0;
#X connect 44 0 39 0;
#X connect 45 0 46 0;
#X connect 47 0 46 0;
#X connect 48 0 54 0;
#X connect 49 0 55 0;
#X connect 50 0 46 0;
#X connect 51 0 50 0;
#X connect 52 0 53 0;
#X connect 52 1 53 1;
#X connect 53 0 51 0;
#X connect 54 0 53 0;
#X connect 55 0 52 0;
#X connect 56 0 60 0;
#X connect 57 0 56 0;
#X connect 58 0 57 0;
#X connect 60 0 59 0;
