#N canvas 853 400 789 565 10;
#X declare -lib mrpeach;
#X declare -lib mrpeach;
#X declare -lib mrpeach;
#X declare -lib mrpeach;
#X declare -lib mrpeach;
#X declare -lib mrpeach;
#X declare -lib mrpeach;
#X declare -lib mrpeach;
#X declare -lib mrpeach;
#X obj -317 18 import mrpeach;
#X obj -226 99 udpreceive 10000;
#X obj -226 122 unpackOSC;
#X obj -317 509 udpsend;
#X msg -307 98 disconnect;
#X obj -300 482 packOSC;
#X floatatom 302 12 5 0 0 0 - - -;
#X floatatom 344 12 5 0 0 0 - - -;
#X floatatom 387 12 5 0 0 0 - - -;
#X obj 331 -17 ctlin;
#X obj -226 145 routeOSC /4;
#X obj -226 169 routeOSC /multitoggle;
#X obj -226 193 routeOSC /1 /2 /3 /4 /5 /6 /7 /8;
#X msg -269 457 send /sequence1/set_beat \$3 \$2 \$1;
#X obj -272 243 trackpack;
#X msg -317 71 connect 127.0.0.1 10203;
#X msg -209 243 7;
#X msg -197 267 6;
#X msg -180 291 5;
#X msg -168 316 4;
#X msg -158 340 3;
#X msg -147 364 2;
#X msg -129 387 1;
#X msg -110 414 0;
#X text -342 -34 TouchOSC > PD > JackBeat (YomGuy 2010);
#X text -312 -7 working with TouchOS Simple layout \, sheet 4;
#X obj 214 125 unpackOSC;
#X obj 214 102 udpreceive 11000;
#X obj 214 148 routeOSC /sequence1;
#X obj 215 205 unpack f f f;
#X floatatom 215 228 5 0 0 0 - - -;
#X floatatom 257 228 5 0 0 0 - - -;
#X floatatom 300 228 5 0 0 0 - - -;
#X obj 214 172 routeOSC /beat_changed;
#X obj 215 251 + 1;
#X obj 257 252 + 1;
#X obj 215 276 pack f f f;
#X msg 131 76 disconnect;
#X obj 118 501 udpsend;
#X obj 135 474 packOSC;
#X msg 215 315 send /4/multitoggle/\$1/\$2 \$3;
#X msg 119 50 connect 192.168.0.3 9000;
#X floatatom -48 301 5 0 0 0 - - -;
#X text -47 317 Resolution (N*8);
#X obj -317 42 loadbang;
#X obj -127 142 print unpacked;
#X msg -48 70 2;
#X obj -259 267 trackpack;
#X obj -244 291 trackpack;
#X obj -232 316 trackpack;
#X obj -222 340 trackpack;
#X obj -211 364 trackpack;
#X obj -193 387 trackpack;
#X obj -174 414 trackpack;
#X connect 1 0 2 0;
#X connect 2 0 10 0;
#X connect 2 0 45 0;
#X connect 4 0 3 0;
#X connect 5 0 3 0;
#X connect 9 0 6 0;
#X connect 9 1 7 0;
#X connect 9 2 8 0;
#X connect 10 0 11 0;
#X connect 11 0 12 0;
#X connect 12 0 16 0;
#X connect 12 0 14 0;
#X connect 12 1 17 0;
#X connect 12 1 47 0;
#X connect 12 2 18 0;
#X connect 12 2 48 0;
#X connect 12 3 19 0;
#X connect 12 3 49 0;
#X connect 12 4 20 0;
#X connect 12 4 50 0;
#X connect 12 5 21 0;
#X connect 12 5 51 0;
#X connect 12 6 22 0;
#X connect 12 6 52 0;
#X connect 12 7 23 0;
#X connect 12 7 53 0;
#X connect 13 0 5 0;
#X connect 14 0 13 0;
#X connect 15 0 3 0;
#X connect 16 0 14 2;
#X connect 17 0 47 2;
#X connect 18 0 48 2;
#X connect 19 0 49 2;
#X connect 20 0 50 2;
#X connect 21 0 51 2;
#X connect 22 0 52 2;
#X connect 23 0 53 2;
#X connect 26 0 28 0;
#X connect 27 0 26 0;
#X connect 28 0 33 0;
#X connect 29 0 30 0;
#X connect 29 1 31 0;
#X connect 29 2 32 0;
#X connect 30 0 34 0;
#X connect 31 0 35 0;
#X connect 32 0 36 2;
#X connect 33 0 29 0;
#X connect 34 0 36 0;
#X connect 35 0 36 1;
#X connect 36 0 40 0;
#X connect 37 0 38 0;
#X connect 39 0 38 0;
#X connect 40 0 38 0;
#X connect 41 0 38 0;
#X connect 42 0 14 1;
#X connect 42 0 47 1;
#X connect 42 0 48 1;
#X connect 42 0 49 1;
#X connect 42 0 50 1;
#X connect 42 0 51 1;
#X connect 42 0 52 1;
#X connect 42 0 53 1;
#X connect 44 0 15 0;
#X connect 44 0 46 0;
#X connect 46 0 42 0;
#X connect 47 0 13 0;
#X connect 48 0 13 0;
#X connect 49 0 13 0;
#X connect 50 0 13 0;
#X connect 51 0 13 0;
#X connect 52 0 13 0;
#X connect 53 0 13 0;
