#N canvas 365 51 435 572 10;
#X declare -lib mrpeach;
#X obj -287 31 import mrpeach;
#X obj -260 137 routeOSC /2;
#X obj -245 159 routeOSC /3;
#X obj -232 179 routeOSC /4;
#X obj -148 114 routeOSC /5;
#X obj -133 138 routeOSC /6;
#X obj -110 163 routeOSC /7;
#X obj -90 188 routeOSC /8;
#X obj -195 507 outlet;
#X obj -240 63 inlet;
#X obj -82 340 inlet;
#X obj -280 115 routeOSC /1;
#X obj -296 378 pack f 0 f;
#X obj -281 402 pack f 1 f;
#X obj -267 427 pack f 2 f;
#X obj -251 450 pack f 3 f;
#X obj -184 376 pack f 4 f;
#X obj -167 398 pack f 5 f;
#X obj -152 423 pack f 6 f;
#X obj -135 446 pack f 7 f;
#X obj -188 205 inlet;
#X msg -282 171 0;
#X msg -261 192 1;
#X msg -246 207 2;
#X msg -232 227 3;
#X msg -149 166 4;
#X msg -133 190 5;
#X msg -110 208 6;
#X msg -90 241 7;
#X obj -246 267 *;
#X obj -232 290 *;
#X obj -148 226 *;
#X obj -129 253 *;
#X obj -111 276 *;
#X obj -90 302 *;
#X obj -282 220 * 1;
#X obj -261 239 * 1;
#X connect 1 0 22 0;
#X connect 1 0 13 0;
#X connect 2 0 23 0;
#X connect 2 0 14 0;
#X connect 3 0 24 0;
#X connect 3 0 15 0;
#X connect 4 0 25 0;
#X connect 4 0 16 0;
#X connect 5 0 26 0;
#X connect 5 0 17 0;
#X connect 6 0 27 0;
#X connect 6 0 18 0;
#X connect 7 0 28 0;
#X connect 7 0 19 0;
#X connect 9 0 1 0;
#X connect 9 0 2 0;
#X connect 9 0 3 0;
#X connect 9 0 4 0;
#X connect 9 0 5 0;
#X connect 9 0 6 0;
#X connect 9 0 7 0;
#X connect 9 0 11 0;
#X connect 10 0 12 2;
#X connect 10 0 13 2;
#X connect 10 0 14 2;
#X connect 10 0 15 2;
#X connect 10 0 16 2;
#X connect 10 0 17 2;
#X connect 10 0 18 2;
#X connect 10 0 19 2;
#X connect 11 0 21 0;
#X connect 11 0 12 0;
#X connect 12 0 8 0;
#X connect 13 0 8 0;
#X connect 14 0 8 0;
#X connect 15 0 8 0;
#X connect 16 0 8 0;
#X connect 17 0 8 0;
#X connect 18 0 8 0;
#X connect 19 0 8 0;
#X connect 20 0 29 1;
#X connect 20 0 30 1;
#X connect 20 0 31 1;
#X connect 20 0 32 1;
#X connect 20 0 33 1;
#X connect 20 0 34 1;
#X connect 20 0 35 1;
#X connect 20 0 36 1;
#X connect 21 0 35 0;
#X connect 22 0 36 0;
#X connect 23 0 29 0;
#X connect 24 0 30 0;
#X connect 25 0 31 0;
#X connect 26 0 32 0;
#X connect 27 0 33 0;
#X connect 28 0 34 0;
#X connect 29 0 14 1;
#X connect 30 0 15 1;
#X connect 31 0 16 1;
#X connect 32 0 17 1;
#X connect 33 0 18 1;
#X connect 34 0 19 1;
#X connect 35 0 12 1;
#X connect 36 0 13 1;
